# xmcd
#
# Track frame offsets:
#	150
#	14301
#	27994
#	43367
#	55231
#	69177
#	78490
#	92135
#	107524
#	122687
#	133778
#	148455
#	162248
#	181869
#	197116
#	213354
#	226132
#	241452
#	254420
#	280202
#	298690
#
# Disc length: 4179 seconds
#
# Revision: 0
# Processed by: cddbd v1.5.2PL0 Copyright (c) Steve Scherf et al.
# Submitted via: EasyCDDAExtractor 10.5.1.1
#
DISCID=38105115
DTITLE=The Delfonics - The Delfonics Greatest Hits
DYEAR=1900
DGENRE=R&B
TTITLE0=Over and Over
TTITLE1=Wlk Right Up To The Sun
TTITLE2=La La Means I Love You
TTITLE3=You're Gone
TTITLE4=Break Your Promise
TTITLE5=Ready Or Not Here I Come
TTITLE6=Can You Remember
TTITLE7=Didn't I Blow Your Mind
TTITLE8=You Got Yours And I'll Get Mine
TTITLE9=He Really Don't Love You
TTITLE10=I Told You So
TTITLE11=Trying To Make A Fool Of Me
TTITLE12=Defonics Theme
TTITLE13=Hey Love
TTITLE14=Tell Me This Is A Dream
TTITLE15=I'm Sorry
TTITLE16=Somebody LOoves You
TTITLE17=When You Get Right Down To It
TTITLE18=I Gave To You
TTITLE19=Lying To Myself
TTITLE20=I Didn't Want To Make That What
EXTD=
EXTT0=
EXTT1=
EXTT2=
EXTT3=
EXTT4=
EXTT5=
EXTT6=
EXTT7=
EXTT8=
EXTT9=
EXTT10=
EXTT11=
EXTT12=
EXTT13=
EXTT14=
EXTT15=
EXTT16=
EXTT17=
EXTT18=
EXTT19=
EXTT20=
PLAYORDER=
